<svg version="1.1" id="Layer_1" xmlns="http://www.w3.org/2000/svg" xmlns:xlink="http://www.w3.org/1999/xlink" x="0px" y="0px"
	 width="100%" viewBox="0 0 701 701" enable-background="new 0 0 701 701" xml:space="preserve">
<path fill="#010101" opacity="1.000000" stroke="none" 
	d="
M357.000000,702.000000 
	C238.000000,702.000000 119.500000,702.000000 1.000000,702.000000 
	C1.000000,468.333344 1.000000,234.666672 1.000000,1.000000 
	C234.666672,1.000000 468.333344,1.000000 702.000000,1.000000 
	C702.000000,234.666672 702.000000,468.333344 702.000000,702.000000 
	C587.166687,702.000000 472.333344,702.000000 357.000000,702.000000 
M278.255737,470.807861 
	C277.089020,469.853516 275.970032,468.165863 274.746460,468.086273 
	C271.454529,467.872253 268.105072,468.624542 264.802368,468.472778 
	C260.817261,468.289734 259.050842,469.945892 258.936981,474.011688 
	C260.648041,474.271484 262.229980,474.511688 264.224701,474.814545 
	C263.764923,480.801086 263.317780,486.623138 262.858887,492.597778 
	C268.018738,492.359619 270.252014,490.585815 270.098663,485.813171 
	C269.983459,482.227539 270.848755,478.610382 271.310944,474.726929 
	C274.102570,474.299866 276.643402,473.911194 279.932678,473.858948 
	C280.409149,474.827667 281.368622,475.842377 281.281494,476.757416 
	C280.818085,481.624390 280.092407,486.466370 279.458191,491.317078 
	C288.914124,494.286652 293.037201,493.414215 294.840088,487.756165 
	C292.376160,487.510498 289.977509,487.271301 286.283722,486.902954 
	C289.069092,483.713593 291.261871,481.202820 293.850433,478.238800 
	C291.257538,477.470184 289.912140,477.071381 287.606689,476.388031 
	C291.636566,473.894684 294.945923,471.847168 299.065918,470.064667 
	C299.065918,477.548737 299.065918,485.032837 299.065918,492.421356 
	C306.015381,493.264679 303.876770,487.148438 306.229645,483.934937 
	C308.456848,487.005280 310.449646,489.752472 312.885803,493.110840 
	C314.606567,491.485748 317.226776,490.186035 317.325928,488.716187 
	C317.779053,482.000977 317.524933,475.238037 317.524933,468.454651 
	C310.041168,466.869812 313.425385,474.225800 310.977020,476.818817 
	C310.314117,476.522552 309.701508,476.451813 309.502899,476.127502 
	C308.031830,473.725739 307.151276,470.534851 305.053436,469.091705 
	C303.607635,468.097076 300.512085,469.500519 297.392548,469.877380 
	C296.730927,469.238495 295.972107,467.972534 295.422729,468.057709 
	C289.932617,468.908752 283.916321,466.973053 278.255737,470.807861 
M510.082367,310.500092 
	C510.094574,306.833649 510.010651,303.163910 510.135193,299.501282 
	C510.774780,280.692871 511.216400,261.872223 512.267395,243.086044 
	C512.682373,235.667831 511.650940,234.115875 504.570465,235.803940 
	C495.022858,238.080231 485.528503,240.649216 475.892365,242.459396 
	C470.063629,243.554367 467.046326,246.456924 466.491028,252.173065 
	C466.314514,253.990234 466.196228,255.821289 466.195129,257.646057 
	C466.177887,286.144775 466.188446,314.643463 466.174408,343.142181 
	C466.173584,344.827087 466.018646,346.511932 465.935425,348.196838 
	C464.092529,347.101685 463.294800,345.883270 462.590057,344.613281 
	C442.969513,309.254547 423.360016,273.889679 403.744080,238.528381 
	C400.624786,232.905319 398.670135,232.312073 393.020996,235.461029 
	C384.587799,240.161835 376.186676,244.920578 367.791473,249.689041 
	C355.102325,256.896454 355.092346,256.918884 362.339569,269.497986 
	C364.828583,273.818207 367.202087,277.894897 366.733185,283.408203 
	C365.392151,299.174744 364.796967,315.003296 363.580292,330.782135 
	C361.031616,363.835876 358.321533,396.877472 355.565094,429.914673 
	C354.887299,438.038513 357.110474,440.230988 364.879822,437.737152 
	C374.531708,434.638977 383.998749,430.963959 393.655121,427.880981 
	C398.702423,426.269562 400.559143,423.268921 400.864288,418.054901 
	C402.168640,395.769836 403.826508,373.505371 405.390533,351.235840 
	C405.486115,349.875214 405.884583,348.535828 406.436188,345.645782 
	C412.173096,354.415253 417.069977,361.858002 421.923950,369.328644 
	C436.167572,391.250732 450.381531,413.192078 464.653076,435.095978 
	C465.709686,436.717682 466.309692,439.526123 469.427399,437.615356 
	C481.064087,430.483612 492.830414,423.555023 504.288300,416.148315 
	C506.108551,414.971619 507.491364,411.757751 507.561859,409.439636 
	C508.554260,376.797791 509.284149,344.148010 510.082367,310.500092 
M184.816971,290.210602 
	C176.026199,306.958008 172.225967,324.879242 172.834442,343.678131 
	C173.827942,374.371887 184.704605,400.504272 209.603256,419.572021 
	C229.330246,434.679199 252.074585,438.487885 276.262146,436.215332 
	C289.609131,434.961273 302.722595,432.773682 314.515503,425.967926 
	C316.269348,424.955780 318.019379,422.269928 318.096008,420.293427 
	C318.541229,408.810638 318.555573,397.308472 318.565277,385.812744 
	C318.569305,381.058594 317.330292,380.244110 313.242004,382.485992 
	C301.712341,388.808472 289.299438,391.235474 276.304138,391.709900 
	C257.647064,392.391052 245.102173,384.502838 238.185532,367.192566 
	C232.397003,352.705627 231.349487,337.623108 234.404663,322.508698 
	C238.032623,304.560669 247.113495,290.234619 265.187317,283.690033 
	C280.527985,278.135071 295.024872,281.522827 308.772461,289.364899 
	C313.681763,292.165314 318.379089,295.385254 323.450562,297.840790 
	C329.193604,300.621429 331.597504,298.937897 331.285065,292.610382 
	C330.668945,280.132660 329.967316,267.653992 328.924683,255.207260 
	C328.735565,252.950043 327.290192,250.122116 325.505280,248.785172 
	C314.623047,240.634033 301.814117,237.876068 288.611206,236.355225 
	C244.927002,231.323181 206.310303,251.129593 184.816971,290.210602 
M463.683167,470.009460 
	C461.833923,470.129639 459.984650,470.249817 458.678314,470.334717 
	C458.261475,473.864532 457.940216,476.584839 457.618958,479.305176 
	C457.125305,479.256378 456.631622,479.207581 456.137970,479.158783 
	C455.516418,476.930847 454.850464,474.714142 454.282257,472.472687 
	C452.947174,467.205719 451.967560,466.808929 446.212616,469.775482 
	C448.396729,477.402039 450.610779,485.133209 453.250244,494.349823 
	C456.346985,490.310791 458.497681,487.505676 460.925110,484.339630 
	C461.903473,487.172943 462.796204,489.758362 464.266022,494.014984 
	C472.029572,486.397491 471.757050,476.753754 475.716919,468.673920 
	C467.630859,467.106628 468.955536,474.001801 466.114410,477.696106 
	C465.367889,474.965332 464.765442,472.761627 463.683167,470.009460 
M213.109406,490.451141 
	C218.625961,495.087128 228.188568,492.000732 231.564102,485.821686 
	C234.157166,481.074951 234.739975,475.784393 231.199738,471.808105 
	C228.841263,469.159119 224.338272,466.732605 220.987686,466.966400 
	C210.442719,467.702240 205.782669,481.200134 213.109406,490.451141 
M369.933472,481.187317 
	C369.582397,479.785217 368.580414,478.144348 368.992126,477.022064 
	C370.848633,471.960754 369.607239,468.991699 364.233521,468.354858 
	C361.052856,467.977966 357.569733,468.337311 354.505493,469.282562 
	C351.158752,470.314972 347.544281,472.092468 351.548920,476.643402 
	C352.120667,477.293121 351.750305,478.862823 351.652710,479.992645 
	C351.410553,482.796417 350.961884,485.587006 350.834839,488.393646 
	C350.789093,489.404114 351.397827,491.326965 351.755066,491.338226 
	C355.943024,491.470276 360.350861,492.091095 364.275177,491.021667 
	C368.186371,489.955780 370.838562,486.627258 369.933472,481.187317 
M243.947342,470.516663 
	C241.421066,465.670990 239.327484,469.318970 237.808884,470.084808 
	C237.442017,478.160645 237.111923,485.426636 236.792297,492.462372 
	C244.385620,492.937775 241.532349,486.629303 243.709076,483.341156 
	C246.065857,486.701935 248.134216,489.651428 250.607544,493.178406 
	C252.422119,491.456909 255.060883,490.141632 255.163040,488.652405 
	C255.623108,481.945801 255.363770,475.189819 255.363770,468.553955 
	C247.198242,466.944916 251.524200,474.664062 248.191650,477.546753 
	C246.763184,475.228912 245.522385,473.215607 243.947342,470.516663 
M500.411072,474.726715 
	C501.026855,476.681274 502.085144,478.618713 502.161743,480.594177 
	C502.299957,484.160645 501.851196,487.749847 501.641205,491.441895 
	C504.228638,491.911652 506.167175,492.432373 508.134766,492.589264 
	C514.127319,493.067078 520.583069,489.347107 520.869629,484.548889 
	C521.101685,480.663391 519.056580,476.748871 520.725769,472.679657 
	C520.973328,472.076141 519.806213,470.603241 518.981506,469.896759 
	C514.284790,465.873199 503.362244,468.324554 500.411072,474.726715 
M417.110535,468.381226 
	C411.466278,468.956818 416.020691,475.020782 412.062103,477.218170 
	C410.141998,474.027954 408.256409,470.895050 406.189911,467.461548 
	C404.192963,468.641052 402.671936,469.539459 401.967133,469.955750 
	C401.583038,478.001678 401.235321,485.286377 400.889893,492.522247 
	C408.219421,492.737030 406.193268,487.123871 407.378540,482.707336 
	C410.117004,486.593079 412.248901,489.618164 414.257965,492.468903 
	C418.671509,491.515411 419.937256,489.014191 419.747131,485.112244 
	C419.521179,480.476013 419.895020,475.812134 419.730499,471.170105 
	C419.695038,470.169250 418.471283,469.210541 417.110535,468.381226 
M477.086548,491.039825 
	C479.270813,492.648621 480.646332,492.817566 482.690094,490.147400 
	C483.684265,488.848511 489.342957,488.895782 489.651733,489.653442 
	C491.826691,494.989990 494.618439,491.308411 498.031860,490.862762 
	C495.496490,483.444977 493.283417,476.387207 490.628998,469.499512 
	C489.610413,466.856445 485.692535,467.407715 484.047180,470.434509 
	C482.871796,472.596832 482.385437,475.128967 481.249481,477.318634 
	C479.935181,479.852112 478.245789,482.191071 476.339935,485.216675 
	C476.406738,486.310547 476.533234,488.381439 477.086548,491.039825 
M423.289093,490.898438 
	C424.574066,491.487610 425.859039,492.076813 427.163147,492.674744 
	C429.386322,487.167969 435.381958,486.593475 438.112305,492.720520 
	C440.031738,492.100983 441.981781,491.471558 444.309692,490.720154 
	C441.980682,483.772156 439.910675,477.334991 437.614838,470.979431 
	C437.180939,469.778412 435.608856,467.911926 434.977661,468.065125 
	C433.233368,468.488495 431.136932,469.451508 430.227325,470.872009 
	C428.738983,473.196259 428.256348,476.138550 427.014374,478.654694 
	C426.021790,480.665771 424.530609,482.430756 422.934479,484.786438 
	C422.934479,486.033966 422.934479,488.141174 423.289093,490.898438 
M200.334717,474.029663 
	C202.374115,474.463348 204.413498,474.897003 208.137482,475.688873 
	C206.654755,472.668121 206.198883,469.899323 204.617508,468.884644 
	C200.841125,466.461639 194.393280,468.264832 190.952011,471.970490 
	C187.425034,475.768494 186.606613,482.233490 189.064850,486.878021 
	C191.278320,491.060120 196.005478,493.334198 200.827011,492.618103 
	C204.685318,492.045074 206.564865,490.317444 204.776123,486.005463 
	C201.132034,486.983521 197.262299,487.929260 195.658386,483.148590 
	C194.340881,479.221588 195.316101,475.936584 200.334717,474.029663 
M332.993225,468.206055 
	C331.006561,468.315216 329.008026,468.615234 327.035706,468.493011 
	C323.145142,468.251923 321.751770,470.243530 321.625793,473.976044 
	C323.302551,474.315552 324.836578,474.626160 326.563202,474.975769 
	C326.274384,481.024750 325.997803,486.818054 325.719940,492.638580 
	C331.082306,492.409698 332.808960,489.981812 332.850006,485.852295 
	C332.877960,483.039001 332.999695,480.188751 333.515381,477.436707 
	C333.724640,476.320068 335.047607,474.607483 335.938690,474.559601 
	C340.282379,474.326233 340.106689,471.369598 340.523315,468.129700 
	C338.057190,468.129700 335.953583,468.129700 332.993225,468.206055 
M386.032623,469.781281 
	C384.687317,471.276398 383.342010,472.771515 381.779541,474.507996 
	C380.888519,472.887726 380.576843,471.487946 379.725647,470.963104 
	C378.358032,470.119812 376.633789,469.854889 375.060211,469.345551 
	C374.789581,470.850098 373.810486,472.723785 374.369263,473.796143 
	C376.975891,478.798401 378.730042,483.749878 376.769012,489.437592 
	C376.453735,490.351990 376.973969,491.554504 377.108002,492.623810 
	C377.535278,492.903198 377.962555,493.182556 378.389862,493.461945 
	C380.205414,491.456207 382.474030,489.695923 383.726074,487.384888 
	C385.431061,484.237732 386.239929,480.618866 387.659210,477.298950 
	C388.838928,474.539398 390.345154,471.919434 392.233582,468.199982 
	C389.508240,468.824982 388.102997,469.147247 386.032623,469.781281 
z"/>
<path fill="#FBFBFB" opacity="1.000000" stroke="none" 
	d="
M510.080048,311.000122 
	C509.284149,344.148010 508.554260,376.797791 507.561859,409.439636 
	C507.491364,411.757751 506.108551,414.971619 504.288300,416.148315 
	C492.830414,423.555023 481.064087,430.483612 469.427399,437.615356 
	C466.309692,439.526123 465.709686,436.717682 464.653076,435.095978 
	C450.381531,413.192078 436.167572,391.250732 421.923950,369.328644 
	C417.069977,361.858002 412.173096,354.415253 406.436188,345.645782 
	C405.884583,348.535828 405.486115,349.875214 405.390533,351.235840 
	C403.826508,373.505371 402.168640,395.769836 400.864288,418.054901 
	C400.559143,423.268921 398.702423,426.269562 393.655121,427.880981 
	C383.998749,430.963959 374.531708,434.638977 364.879822,437.737152 
	C357.110474,440.230988 354.887299,438.038513 355.565094,429.914673 
	C358.321533,396.877472 361.031616,363.835876 363.580292,330.782135 
	C364.796967,315.003296 365.392151,299.174744 366.733185,283.408203 
	C367.202087,277.894897 364.828583,273.818207 362.339569,269.497986 
	C355.092346,256.918884 355.102325,256.896454 367.791473,249.689041 
	C376.186676,244.920578 384.587799,240.161835 393.020996,235.461029 
	C398.670135,232.312073 400.624786,232.905319 403.744080,238.528381 
	C423.360016,273.889679 442.969513,309.254547 462.590057,344.613281 
	C463.294800,345.883270 464.092529,347.101685 465.935425,348.196838 
	C466.018646,346.511932 466.173584,344.827087 466.174408,343.142181 
	C466.188446,314.643463 466.177887,286.144775 466.195129,257.646057 
	C466.196228,255.821289 466.314514,253.990234 466.491028,252.173065 
	C467.046326,246.456924 470.063629,243.554367 475.892365,242.459396 
	C485.528503,240.649216 495.022858,238.080231 504.570465,235.803940 
	C511.650940,234.115875 512.682373,235.667831 512.267395,243.086044 
	C511.216400,261.872223 510.774780,280.692871 510.135193,299.501282 
	C510.010651,303.163910 510.094574,306.833649 510.080048,311.000122 
z"/>
<path fill="#FCFCFC" opacity="1.000000" stroke="none" 
	d="
M184.950073,289.863831 
	C206.310303,251.129593 244.927002,231.323181 288.611206,236.355225 
	C301.814117,237.876068 314.623047,240.634033 325.505280,248.785172 
	C327.290192,250.122116 328.735565,252.950043 328.924683,255.207260 
	C329.967316,267.653992 330.668945,280.132660 331.285065,292.610382 
	C331.597504,298.937897 329.193604,300.621429 323.450562,297.840790 
	C318.379089,295.385254 313.681763,292.165314 308.772461,289.364899 
	C295.024872,281.522827 280.527985,278.135071 265.187317,283.690033 
	C247.113495,290.234619 238.032623,304.560669 234.404663,322.508698 
	C231.349487,337.623108 232.397003,352.705627 238.185532,367.192566 
	C245.102173,384.502838 257.647064,392.391052 276.304138,391.709900 
	C289.299438,391.235474 301.712341,388.808472 313.242004,382.485992 
	C317.330292,380.244110 318.569305,381.058594 318.565277,385.812744 
	C318.555573,397.308472 318.541229,408.810638 318.096008,420.293427 
	C318.019379,422.269928 316.269348,424.955780 314.515503,425.967926 
	C302.722595,432.773682 289.609131,434.961273 276.262146,436.215332 
	C252.074585,438.487885 229.330246,434.679199 209.603256,419.572021 
	C184.704605,400.504272 173.827942,374.371887 172.834442,343.678131 
	C172.225967,324.879242 176.026199,306.958008 184.950073,289.863831 
z"/>
<path fill="#E6E6E6" opacity="1.000000" stroke="none" 
	d="
M463.923065,470.283691 
	C464.765442,472.761627 465.367889,474.965332 466.114410,477.696106 
	C468.955536,474.001801 467.630859,467.106628 475.716919,468.673920 
	C471.757050,476.753754 472.029572,486.397491 464.266022,494.014984 
	C462.796204,489.758362 461.903473,487.172943 460.925110,484.339630 
	C458.497681,487.505676 456.346985,490.310791 453.250244,494.349823 
	C450.610779,485.133209 448.396729,477.402039 446.212616,469.775482 
	C451.967560,466.808929 452.947174,467.205719 454.282257,472.472687 
	C454.850464,474.714142 455.516418,476.930847 456.137970,479.158783 
	C456.631622,479.207581 457.125305,479.256378 457.618958,479.305176 
	C457.940216,476.584839 458.261475,473.864532 458.678314,470.334717 
	C459.984650,470.249817 461.833923,470.129639 463.923065,470.283691 
z"/>
<path fill="#E5E5E5" opacity="1.000000" stroke="none" 
	d="
M212.828705,490.210815 
	C205.782669,481.200134 210.442719,467.702240 220.987686,466.966400 
	C224.338272,466.732605 228.841263,469.159119 231.199738,471.808105 
	C234.739975,475.784393 234.157166,481.074951 231.564102,485.821686 
	C228.188568,492.000732 218.625961,495.087128 212.828705,490.210815 
M223.176086,473.949554 
	C219.628601,472.964539 217.376770,475.011810 217.047104,477.925079 
	C216.748886,480.560425 217.786133,483.504639 218.889130,486.026367 
	C219.154633,486.633423 223.148087,486.666382 223.472305,486.005035 
	C224.750900,483.396942 225.483795,480.441315 225.907806,477.539917 
	C226.047134,476.586456 224.638031,475.406708 223.176086,473.949554 
z"/>
<path fill="#E2E2E2" opacity="1.000000" stroke="none" 
	d="
M298.153839,469.832214 
	C300.512085,469.500519 303.607635,468.097076 305.053436,469.091705 
	C307.151276,470.534851 308.031830,473.725739 309.502899,476.127502 
	C309.701508,476.451813 310.314117,476.522552 310.977020,476.818817 
	C313.425385,474.225800 310.041168,466.869812 317.524933,468.454651 
	C317.524933,475.238037 317.779053,482.000977 317.325928,488.716187 
	C317.226776,490.186035 314.606567,491.485748 312.885803,493.110840 
	C310.449646,489.752472 308.456848,487.005280 306.229645,483.934937 
	C303.876770,487.148438 306.015381,493.264679 299.065918,492.421356 
	C299.065918,485.032837 299.065918,477.548737 298.630615,469.942719 
	C298.195343,469.820770 298.153839,469.832214 298.153839,469.832214 
z"/>
<path fill="#E6E6E6" opacity="1.000000" stroke="none" 
	d="
M370.095276,481.539764 
	C370.838562,486.627258 368.186371,489.955780 364.275177,491.021667 
	C360.350861,492.091095 355.943024,491.470276 351.755066,491.338226 
	C351.397827,491.326965 350.789093,489.404114 350.834839,488.393646 
	C350.961884,485.587006 351.410553,482.796417 351.652710,479.992645 
	C351.750305,478.862823 352.120667,477.293121 351.548920,476.643402 
	C347.544281,472.092468 351.158752,470.314972 354.505493,469.282562 
	C357.569733,468.337311 361.052856,467.977966 364.233521,468.354858 
	C369.607239,468.991699 370.848633,471.960754 368.992126,477.022064 
	C368.580414,478.144348 369.582397,479.785217 370.095276,481.539764 
M360.485870,473.378479 
	C356.379730,477.603851 358.178650,482.687500 357.704926,487.440826 
	C358.109619,487.726746 358.514313,488.012665 358.918976,488.298584 
	C360.521790,487.185852 362.124603,486.073120 363.727417,484.960358 
	C362.631195,483.534027 361.534973,482.107697 360.094055,480.232880 
	C360.713623,479.200165 361.896942,477.697327 362.499298,475.989532 
	C362.736053,475.318268 361.673706,474.188751 360.485870,473.378479 
z"/>
<path fill="#E4E4E4" opacity="1.000000" stroke="none" 
	d="
M244.114471,470.859497 
	C245.522385,473.215607 246.763184,475.228912 248.191650,477.546753 
	C251.524200,474.664062 247.198242,466.944916 255.363770,468.553955 
	C255.363770,475.189819 255.623108,481.945801 255.163040,488.652405 
	C255.060883,490.141632 252.422119,491.456909 250.607544,493.178406 
	C248.134216,489.651428 246.065857,486.701935 243.709076,483.341156 
	C241.532349,486.629303 244.385620,492.937775 236.792297,492.462372 
	C237.111923,485.426636 237.442017,478.160645 237.808884,470.084808 
	C239.327484,469.318970 241.421066,465.670990 244.114471,470.859497 
z"/>
<path fill="#E6E6E6" opacity="1.000000" stroke="none" 
	d="
M500.459961,474.344604 
	C503.362244,468.324554 514.284790,465.873199 518.981506,469.896759 
	C519.806213,470.603241 520.973328,472.076141 520.725769,472.679657 
	C519.056580,476.748871 521.101685,480.663391 520.869629,484.548889 
	C520.583069,489.347107 514.127319,493.067078 508.134766,492.589264 
	C506.167175,492.432373 504.228638,491.911652 501.641205,491.441895 
	C501.851196,487.749847 502.299957,484.160645 502.161743,480.594177 
	C502.085144,478.618713 501.026855,476.681274 500.459961,474.344604 
M514.252930,483.129395 
	C513.065125,482.364777 511.877350,481.600159 510.471680,480.695251 
	C511.393768,479.649475 512.158569,478.998505 512.641907,478.181152 
	C513.301208,477.066254 513.922058,475.857300 514.154053,474.613129 
	C514.209290,474.316864 512.276550,473.136597 511.915741,473.371735 
	C510.807953,474.093811 509.382690,475.215698 509.223694,476.343292 
	C508.708832,479.994690 508.704285,483.718018 508.487946,487.692505 
	C511.893341,487.540161 514.530151,487.505676 514.252930,483.129395 
z"/>
<path fill="#E1E1E1" opacity="1.000000" stroke="none" 
	d="
M417.452698,468.306824 
	C418.471283,469.210541 419.695038,470.169250 419.730499,471.170105 
	C419.895020,475.812134 419.521179,480.476013 419.747131,485.112244 
	C419.937256,489.014191 418.671509,491.515411 414.257965,492.468903 
	C412.248901,489.618164 410.117004,486.593079 407.378540,482.707336 
	C406.193268,487.123871 408.219421,492.737030 400.889893,492.522247 
	C401.235321,485.286377 401.583038,478.001678 401.967133,469.955750 
	C402.671936,469.539459 404.192963,468.641052 406.189911,467.461548 
	C408.256409,470.895050 410.141998,474.027954 412.062103,477.218170 
	C416.020691,475.020782 411.466278,468.956818 417.452698,468.306824 
M412.974609,477.505676 
	C413.200989,477.581604 413.427368,477.657501 413.653717,477.733398 
	C413.575928,477.498535 413.498108,477.263641 412.974609,477.505676 
z"/>
<path fill="#E3E3E3" opacity="1.000000" stroke="none" 
	d="
M476.873138,490.746094 
	C476.533234,488.381439 476.406738,486.310547 476.339935,485.216675 
	C478.245789,482.191071 479.935181,479.852112 481.249481,477.318634 
	C482.385437,475.128967 482.871796,472.596832 484.047180,470.434509 
	C485.692535,467.407715 489.610413,466.856445 490.628998,469.499512 
	C493.283417,476.387207 495.496490,483.444977 498.031860,490.862762 
	C494.618439,491.308411 491.826691,494.989990 489.651733,489.653442 
	C489.342957,488.895782 483.684265,488.848511 482.690094,490.147400 
	C480.646332,492.817566 479.270813,492.648621 476.873138,490.746094 
z"/>
<path fill="#E5E5E5" opacity="1.000000" stroke="none" 
	d="
M423.111786,490.573425 
	C422.934479,488.141174 422.934479,486.033966 422.934479,484.786438 
	C424.530609,482.430756 426.021790,480.665771 427.014374,478.654694 
	C428.256348,476.138550 428.738983,473.196259 430.227325,470.872009 
	C431.136932,469.451508 433.233368,468.488495 434.977661,468.065125 
	C435.608856,467.911926 437.180939,469.778412 437.614838,470.979431 
	C439.910675,477.334991 441.980682,483.772156 444.309692,490.720154 
	C441.981781,491.471558 440.031738,492.100983 438.112305,492.720520 
	C435.381958,486.593475 429.386322,487.167969 427.163147,492.674744 
	C425.859039,492.076813 424.574066,491.487610 423.111786,490.573425 
z"/>
<path fill="#E0E0E0" opacity="1.000000" stroke="none" 
	d="
M279.015778,471.014984 
	C283.916321,466.973053 289.932617,468.908752 295.422729,468.057709 
	C295.972107,467.972534 296.730927,469.238495 297.773193,469.854797 
	C298.153839,469.832214 298.195343,469.820770 298.225311,469.810181 
	C294.945923,471.847168 291.636566,473.894684 287.606689,476.388031 
	C289.912140,477.071381 291.257538,477.470184 293.850433,478.238800 
	C291.261871,481.202820 289.069092,483.713593 286.283722,486.902954 
	C289.977509,487.271301 292.376160,487.510498 294.840088,487.756165 
	C293.037201,493.414215 288.914124,494.286652 279.457855,491.317047 
	C280.092407,486.466370 280.818085,481.624390 281.281494,476.757416 
	C281.368622,475.842377 280.409149,474.827667 279.522949,473.709167 
	C279.113220,473.559418 279.031372,473.569916 279.297729,473.137878 
	C279.378876,472.117096 279.193726,471.528412 279.027832,470.957489 
	C279.047119,470.975281 279.015778,471.014984 279.015778,471.014984 
z"/>
<path fill="#E5E5E5" opacity="1.000000" stroke="none" 
	d="
M199.893890,474.089050 
	C195.316101,475.936584 194.340881,479.221588 195.658386,483.148590 
	C197.262299,487.929260 201.132034,486.983521 204.776123,486.005463 
	C206.564865,490.317444 204.685318,492.045074 200.827011,492.618103 
	C196.005478,493.334198 191.278320,491.060120 189.064850,486.878021 
	C186.606613,482.233490 187.425034,475.768494 190.952011,471.970490 
	C194.393280,468.264832 200.841125,466.461639 204.617508,468.884644 
	C206.198883,469.899323 206.654755,472.668121 208.137482,475.688873 
	C204.413498,474.897003 202.374115,474.463348 199.893890,474.089050 
z"/>
<path fill="#E6E6E6" opacity="1.000000" stroke="none" 
	d="
M279.031372,473.569916 
	C279.031372,473.569916 279.113220,473.559418 279.148712,473.540955 
	C276.643402,473.911194 274.102570,474.299866 271.310944,474.726929 
	C270.848755,478.610382 269.983459,482.227539 270.098663,485.813171 
	C270.252014,490.585815 268.018738,492.359619 262.858887,492.597778 
	C263.317780,486.623138 263.764923,480.801086 264.224701,474.814545 
	C262.229980,474.511688 260.648041,474.271484 258.936981,474.011688 
	C259.050842,469.945892 260.817261,468.289734 264.802368,468.472778 
	C268.105072,468.624542 271.454529,467.872253 274.746460,468.086273 
	C275.970032,468.165863 277.089020,469.853516 278.635742,470.911438 
	C279.015778,471.014984 279.047119,470.975281 278.479004,470.861572 
	C278.284393,471.688538 278.657867,472.629211 279.031372,473.569916 
z"/>
<path fill="#E5E5E5" opacity="1.000000" stroke="none" 
	d="
M333.421600,468.167877 
	C335.953583,468.129700 338.057190,468.129700 340.523315,468.129700 
	C340.106689,471.369598 340.282379,474.326233 335.938690,474.559601 
	C335.047607,474.607483 333.724640,476.320068 333.515381,477.436707 
	C332.999695,480.188751 332.877960,483.039001 332.850006,485.852295 
	C332.808960,489.981812 331.082306,492.409698 325.719940,492.638580 
	C325.997803,486.818054 326.274384,481.024750 326.563202,474.975769 
	C324.836578,474.626160 323.302551,474.315552 321.625793,473.976044 
	C321.751770,470.243530 323.145142,468.251923 327.035706,468.493011 
	C329.008026,468.615234 331.006561,468.315216 333.421600,468.167877 
z"/>
<path fill="#E4E4E4" opacity="1.000000" stroke="none" 
	d="
M386.365173,469.625397 
	C388.102997,469.147247 389.508240,468.824982 392.233582,468.199982 
	C390.345154,471.919434 388.838928,474.539398 387.659210,477.298950 
	C386.239929,480.618866 385.431061,484.237732 383.726074,487.384888 
	C382.474030,489.695923 380.205414,491.456207 378.389862,493.461945 
	C377.962555,493.182556 377.535278,492.903198 377.108002,492.623810 
	C376.973969,491.554504 376.453735,490.351990 376.769012,489.437592 
	C378.730042,483.749878 376.975891,478.798401 374.369263,473.796143 
	C373.810486,472.723785 374.789581,470.850098 375.060242,469.345551 
	C376.633789,469.854889 378.358032,470.119812 379.725647,470.963104 
	C380.576843,471.487946 380.888519,472.887726 381.779541,474.507996 
	C383.342010,472.771515 384.687317,471.276398 386.365173,469.625397 
z"/>
<path fill="#171717" opacity="1.000000" stroke="none" 
	d="
M223.556549,474.140015 
	C224.638031,475.406708 226.047134,476.586456 225.907806,477.539917 
	C225.483795,480.441315 224.750900,483.396942 223.472305,486.005035 
	C223.148087,486.666382 219.154633,486.633423 218.889130,486.026367 
	C217.786133,483.504639 216.748886,480.560425 217.047104,477.925079 
	C217.376770,475.011810 219.628601,472.964539 223.556549,474.140015 
z"/>
<path fill="#363636" opacity="1.000000" stroke="none" 
	d="
M360.844421,473.323212 
	C361.673706,474.188751 362.736053,475.318268 362.499298,475.989532 
	C361.896942,477.697327 360.713623,479.200165 360.094055,480.232880 
	C361.534973,482.107697 362.631195,483.534027 363.727417,484.960388 
	C362.124603,486.073120 360.521790,487.185852 358.918976,488.298584 
	C358.514313,488.012665 358.109619,487.726746 357.704926,487.440826 
	C358.178650,482.687500 356.379730,477.603851 360.844421,473.323212 
z"/>
<path fill="#3C3C3C" opacity="1.000000" stroke="none" 
	d="
M514.456421,483.432983 
	C514.530151,487.505676 511.893341,487.540161 508.487946,487.692505 
	C508.704285,483.718018 508.708832,479.994690 509.223694,476.343292 
	C509.382690,475.215698 510.807953,474.093811 511.915741,473.371735 
	C512.276550,473.136597 514.209290,474.316864 514.154053,474.613129 
	C513.922058,475.857300 513.301208,477.066254 512.641907,478.181152 
	C512.158569,478.998505 511.393768,479.649475 510.471680,480.695251 
	C511.877350,481.600159 513.065125,482.364777 514.456421,483.432983 
z"/>
<path fill="#010101" opacity="1.000000" stroke="none" 
	d="
M413.197449,477.267212 
	C413.498108,477.263641 413.575928,477.498535 413.653748,477.733398 
	C413.427368,477.657501 413.200989,477.581604 413.197449,477.267212 
z"/>
<path fill="#010101" opacity="1.000000" stroke="none" 
	d="
M279.297729,473.137878 
	C278.657867,472.629211 278.284393,471.688538 278.459747,470.843750 
	C279.193726,471.528412 279.378876,472.117096 279.297729,473.137878 
z"/>
</svg>